<svg xmlns="http://www.w3.org/2000/svg" viewBox="0 0 200 200" width="200" height="200">
  <!-- Eagle Head -->
  <path d="M100,50 Q130,30 140,50 T160,70 Q150,85 135,85 Q110,85 100,70 Q90,85 65,85 Q50,85 40,70 T50,50 Q70,30 100,50" fill="#333" stroke="#000" stroke-width="2"/>
  <!-- Eagle Body -->
  <path d="M65,85 Q80,110 80,160 Q90,170 110,160 Q110,110 135,85 Q110,105 100,105 Q90,105 65,85" fill="#444" stroke="#000" stroke-width="2"/>
  <!-- Wings -->
  <path d="M40,70 Q30,100 40,130 Q60,120 80,130 Q50,110 65,85 M160,70 Q170,100 160,130 Q140,120 120,130 Q150,110 135,85" fill="none" stroke="#000" stroke-width="2"/>
  <!-- Tail -->
  <path d="M80,160 Q100,180 120,160" fill="none" stroke="#000" stroke-width="2"/>
</svg>
